<svg width="111" height="34" viewBox="0 0 111 34" fill="none" xmlns="http://www.w3.org/2000/svg">
<rect y="1" width="32" height="32" rx="7.68" fill="#2C71EB"/>
<rect x="0.347826" y="1.34783" width="31.3043" height="31.3043" rx="7.33217" stroke="#2049BB" stroke-opacity="0.3" stroke-width="0.695652"/>
<g clip-path="url(#clip0_330_435)">
<g clip-path="url(#clip1_330_435)">
<path d="M17.6537 24.98H10.1421C9.54584 24.98 9.06494 24.4989 9.06494 23.9024C9.06494 23.3059 9.54584 22.8247 10.1421 22.8247H17.6537C18.25 22.8247 18.7309 23.3059 18.7309 23.9024C18.7309 24.4893 18.25 24.98 17.6537 24.98Z" fill="white"/>
<path d="M14.6554 20.7671C14.588 20.7671 14.5207 20.7671 14.463 20.7575L13.8955 20.6998L13.7897 20.1417C13.7609 19.9781 13.1165 16.2159 15.319 13.0407C16.7328 11.0105 18.9738 9.70191 21.9842 9.17271L22.9364 8.99951L22.8691 9.9617C22.8594 10.0868 22.6574 13.0022 21.3975 15.629L21.0127 16.4276L20.2819 15.9273C19.9548 15.6964 19.6374 15.4751 19.3296 15.2441C19.1373 15.0998 18.9449 14.9651 18.7429 14.8208C18.3967 14.5802 18.3198 14.1087 18.5602 13.7624C18.8007 13.416 19.2719 13.339 19.6182 13.5795C19.8202 13.7239 20.0221 13.8682 20.2242 14.0125C20.2819 14.051 20.3396 14.0895 20.3876 14.1376C20.8589 12.9253 21.0994 11.7033 21.234 10.8758C15.3671 12.4249 15.0978 17.3321 15.2036 19.1699C16.2615 18.9197 18.0312 18.0345 18.7429 16.9857C18.9738 16.6393 19.4451 16.5431 19.7913 16.774C20.1375 17.005 20.2338 17.4764 20.0029 17.8228C18.868 19.5259 16.0403 20.7671 14.6554 20.7671Z" fill="white"/>
<path d="M13.3019 22.1056C13.1961 22.1056 13.0903 22.0671 12.9941 21.9998C12.7729 21.8266 12.7344 21.509 12.898 21.2877L14.129 19.6905C14.3022 19.4692 14.6196 19.4307 14.8408 19.5943C15.062 19.7675 15.1004 20.085 14.9369 20.3063L13.7058 21.9036C13.6001 22.0382 13.4462 22.1056 13.3019 22.1056Z" fill="white"/>
</g>
</g>
<path d="M44.7758 11.5781C45.7602 11.5781 46.5727 11.6979 47.2133 11.9375C47.8592 12.1771 48.3383 12.5417 48.6508 13.0312C48.9685 13.5208 49.1274 14.1432 49.1274 14.8984C49.1274 15.4609 49.0232 15.9401 48.8149 16.3359C48.6065 16.7318 48.3331 17.0599 47.9946 17.3203C47.656 17.5807 47.294 17.7891 46.9086 17.9453L50.1508 23H48.0336L45.2758 18.4219H43.4399V23H41.5649V11.5781H44.7758ZM44.6508 13.1406H43.4399V16.875H44.7368C45.6065 16.875 46.2368 16.7135 46.6274 16.3906C47.0232 16.0677 47.2211 15.5911 47.2211 14.9609C47.2211 14.2995 47.0102 13.8307 46.5883 13.5547C46.1717 13.2786 45.5258 13.1406 44.6508 13.1406ZM54.8203 14.1875C55.5911 14.1875 56.2526 14.3464 56.8046 14.6641C57.3567 14.9818 57.7812 15.4323 58.0781 16.0156C58.375 16.599 58.5234 17.2969 58.5234 18.1094V19.0938H52.75C52.7708 19.9323 52.9947 20.5781 53.4218 21.0312C53.8541 21.4844 54.4583 21.7109 55.2343 21.7109C55.7864 21.7109 56.2812 21.6589 56.7187 21.5547C57.1614 21.4453 57.6171 21.2865 58.0859 21.0781V22.5703C57.6536 22.7734 57.2135 22.9219 56.7656 23.0156C56.3177 23.1094 55.7812 23.1562 55.1562 23.1562C54.3072 23.1562 53.5599 22.9922 52.914 22.6641C52.2734 22.3307 51.7708 21.8359 51.4062 21.1797C51.0468 20.5234 50.8671 19.7083 50.8671 18.7344C50.8671 17.7656 51.0312 16.9427 51.3593 16.2656C51.6875 15.5885 52.1484 15.0729 52.7421 14.7188C53.3359 14.3646 54.0286 14.1875 54.8203 14.1875ZM54.8203 15.5703C54.2421 15.5703 53.7734 15.7578 53.414 16.1328C53.0599 16.5078 52.8515 17.0573 52.789 17.7812H56.7265C56.7213 17.349 56.6484 16.9661 56.5078 16.6328C56.3724 16.2995 56.164 16.0391 55.8828 15.8516C55.6067 15.6641 55.2526 15.5703 54.8203 15.5703ZM67.4428 22.9922L66.3491 18.9688C66.297 18.7708 66.2345 18.5312 66.1616 18.25C66.0887 17.9688 66.0158 17.6797 65.9428 17.3828C65.8699 17.0807 65.8022 16.8021 65.7397 16.5469C65.6824 16.2917 65.6382 16.0938 65.6069 15.9531H65.5444C65.5184 16.0938 65.4767 16.2917 65.4194 16.5469C65.3621 16.8021 65.297 17.0807 65.2241 17.3828C65.1512 17.6849 65.0783 17.9792 65.0053 18.2656C64.9376 18.5521 64.8751 18.7969 64.8178 19L63.6694 22.9922H61.6538L59.2319 14.3438H61.0913L62.2163 18.6406C62.2892 18.9323 62.3595 19.2474 62.4272 19.5859C62.5001 19.9245 62.5626 20.2474 62.6147 20.5547C62.6668 20.862 62.7059 21.1146 62.7319 21.3125H62.7944C62.8152 21.1719 62.8439 20.9948 62.8803 20.7812C62.9168 20.5625 62.9585 20.3359 63.0053 20.1016C63.0522 19.862 63.0991 19.638 63.146 19.4297C63.1928 19.2161 63.2371 19.0443 63.2788 18.9141L64.6069 14.3438H66.6147L67.8882 18.9141C67.9454 19.112 68.0079 19.362 68.0757 19.6641C68.1434 19.9609 68.2033 20.2604 68.2553 20.5625C68.3126 20.8594 68.3491 21.1068 68.3647 21.3047H68.4272C68.448 21.1276 68.4845 20.888 68.5366 20.5859C68.5939 20.2786 68.659 19.9531 68.7319 19.6094C68.8048 19.2604 68.8803 18.9375 68.9585 18.6406L70.1069 14.3438H71.935L69.4975 22.9922H67.4428ZM77.581 14.1875C77.7269 14.1875 77.8857 14.1953 78.0576 14.2109C78.2295 14.2266 78.3779 14.2474 78.5029 14.2734L78.331 15.9922C78.2217 15.9609 78.0862 15.9375 77.9248 15.9219C77.7685 15.9062 77.6279 15.8984 77.5029 15.8984C77.1748 15.8984 76.8623 15.9531 76.5654 16.0625C76.2685 16.1667 76.0055 16.3281 75.7764 16.5469C75.5472 16.7604 75.3675 17.0286 75.2373 17.3516C75.1071 17.6745 75.042 18.0495 75.042 18.4766V23H73.1982V14.3516H74.6357L74.8857 15.875H74.9717C75.1435 15.5677 75.3571 15.2865 75.6123 15.0312C75.8675 14.776 76.1592 14.5729 76.4873 14.4219C76.8206 14.2656 77.1852 14.1875 77.581 14.1875ZM81.7192 14.3516V23H79.8833V14.3516H81.7192ZM80.813 11.0391C81.0942 11.0391 81.3364 11.1146 81.5396 11.2656C81.7479 11.4167 81.8521 11.6771 81.8521 12.0469C81.8521 12.4115 81.7479 12.6719 81.5396 12.8281C81.3364 12.9792 81.0942 13.0547 80.813 13.0547C80.5213 13.0547 80.2739 12.9792 80.0708 12.8281C79.8729 12.6719 79.7739 12.4115 79.7739 12.0469C79.7739 11.6771 79.8729 11.4167 80.0708 11.2656C80.2739 11.1146 80.5213 11.0391 80.813 11.0391ZM87.3496 21.6719C87.5892 21.6719 87.8262 21.651 88.0606 21.6094C88.2949 21.5625 88.5085 21.5078 88.7012 21.4453V22.8359C88.4981 22.9245 88.235 23 87.9121 23.0625C87.5892 23.125 87.2533 23.1562 86.9043 23.1562C86.4147 23.1562 85.9746 23.0755 85.584 22.9141C85.1934 22.7474 84.8835 22.4635 84.6543 22.0625C84.4251 21.6615 84.3106 21.1068 84.3106 20.3984V15.75H83.1309V14.9297L84.3965 14.2812L84.9981 12.4297H86.1543V14.3516H88.6309V15.75H86.1543V20.375C86.1543 20.8125 86.2637 21.138 86.4824 21.3516C86.7012 21.5651 86.9902 21.6719 87.3496 21.6719ZM93.6831 14.1875C94.454 14.1875 95.1154 14.3464 95.6675 14.6641C96.2196 14.9818 96.6441 15.4323 96.9409 16.0156C97.2378 16.599 97.3863 17.2969 97.3863 18.1094V19.0938H91.6128C91.6337 19.9323 91.8576 20.5781 92.2847 21.0312C92.717 21.4844 93.3212 21.7109 94.0972 21.7109C94.6493 21.7109 95.1441 21.6589 95.5816 21.5547C96.0243 21.4453 96.48 21.2865 96.9488 21.0781V22.5703C96.5165 22.7734 96.0764 22.9219 95.6284 23.0156C95.1805 23.1094 94.6441 23.1562 94.0191 23.1562C93.1701 23.1562 92.4227 22.9922 91.7769 22.6641C91.1363 22.3307 90.6337 21.8359 90.2691 21.1797C89.9097 20.5234 89.73 19.7083 89.73 18.7344C89.73 17.7656 89.8941 16.9427 90.2222 16.2656C90.5503 15.5885 91.0113 15.0729 91.605 14.7188C92.1988 14.3646 92.8915 14.1875 93.6831 14.1875ZM93.6831 15.5703C93.105 15.5703 92.6363 15.7578 92.2769 16.1328C91.9227 16.5078 91.7144 17.0573 91.6519 17.7812H95.5894C95.5842 17.349 95.5113 16.9661 95.3706 16.6328C95.2352 16.2995 95.0269 16.0391 94.7456 15.8516C94.4696 15.6641 94.1154 15.5703 93.6831 15.5703ZM101.079 23H99.2354V10.8438H101.079V23ZM102.178 14.3516H104.178L105.952 19.2891C106.03 19.513 106.1 19.7344 106.163 19.9531C106.23 20.1667 106.288 20.3776 106.335 20.5859C106.387 20.7943 106.428 21.0026 106.46 21.2109H106.506C106.558 20.9401 106.631 20.638 106.725 20.3047C106.824 19.9661 106.933 19.6276 107.053 19.2891L108.756 14.3516H110.733L107.022 24.1875C106.808 24.75 106.545 25.2292 106.233 25.625C105.926 26.026 105.561 26.3281 105.139 26.5312C104.717 26.7396 104.236 26.8438 103.694 26.8438C103.433 26.8438 103.207 26.8281 103.014 26.7969C102.822 26.7708 102.657 26.7422 102.522 26.7109V25.2422C102.631 25.2682 102.769 25.2917 102.936 25.3125C103.103 25.3333 103.275 25.3438 103.452 25.3438C103.78 25.3438 104.064 25.2786 104.303 25.1484C104.543 25.0182 104.746 24.8333 104.913 24.5938C105.079 24.3594 105.217 24.0911 105.327 23.7891L105.631 22.9766L102.178 14.3516Z" fill="#2C71EB"/>
<defs>
<clipPath id="clip0_330_435">
<rect width="16" height="16" fill="white" transform="translate(8 9)"/>
</clipPath>
<clipPath id="clip1_330_435">
<rect width="13.8667" height="16" fill="white" transform="translate(9.06494 9)"/>
</clipPath>
</defs>
</svg>
